<svg width="1231" height="267" viewBox="0 0 1231 267" xmlns="http://www.w3.org/2000/svg">
    <path fill="white" fill-rule="evenodd"
          d="M 685 143 L 684 144 L 683 144 L 682 145 L 680 145 L 679 146 L 678 146 L 677 147 L 676 147 L 675 148 L 673 148 L 672 149 L 671 149 L 670 150 L 668 150 L 667 151 L 665 151 L 664 152 L 663 152 L 663 153 L 662 154 L 662 157 L 661 158 L 661 160 L 660 161 L 660 163 L 659 164 L 659 166 L 657 168 L 657 169 L 656 170 L 656 171 L 655 172 L 655 173 L 640 188 L 639 188 L 637 190 L 636 190 L 635 191 L 634 191 L 633 192 L 631 192 L 630 193 L 629 193 L 628 194 L 626 194 L 625 195 L 622 195 L 621 196 L 614 196 L 613 197 L 605 197 L 604 196 L 598 196 L 597 195 L 593 195 L 592 194 L 591 194 L 590 193 L 589 193 L 588 192 L 586 192 L 585 191 L 584 191 L 583 190 L 582 190 L 580 188 L 579 188 L 573 182 L 572 182 L 570 180 L 570 179 L 569 179 L 567 177 L 567 176 L 563 172 L 563 171 L 562 170 L 562 169 L 555 169 L 554 168 L 542 168 L 541 167 L 536 167 L 536 170 L 537 171 L 537 172 L 539 174 L 539 176 L 540 177 L 540 178 L 541 179 L 541 181 L 543 183 L 543 184 L 545 186 L 545 187 L 547 189 L 547 190 L 563 206 L 564 206 L 566 208 L 567 208 L 568 209 L 569 209 L 570 210 L 571 210 L 572 211 L 573 211 L 574 212 L 575 212 L 576 213 L 578 213 L 579 214 L 580 214 L 581 215 L 582 215 L 583 216 L 585 216 L 586 217 L 588 217 L 589 218 L 594 218 L 595 219 L 598 219 L 599 220 L 621 220 L 622 219 L 625 219 L 626 218 L 629 218 L 630 217 L 633 217 L 634 216 L 636 216 L 637 215 L 638 215 L 639 214 L 640 214 L 641 213 L 643 213 L 644 212 L 645 212 L 646 211 L 647 211 L 648 210 L 649 210 L 651 208 L 652 208 L 653 207 L 654 207 L 657 204 L 658 204 L 665 197 L 666 197 L 667 196 L 667 195 L 672 190 L 672 189 L 674 187 L 674 186 L 676 184 L 676 183 L 677 182 L 677 181 L 678 180 L 678 179 L 679 178 L 679 177 L 680 176 L 680 175 L 681 174 L 681 172 L 682 171 L 682 169 L 683 168 L 683 167 L 684 166 L 684 164 L 685 163 L 685 160 L 686 159 L 686 157 L 687 156 L 687 143 Z M 691 86 L 691 87 L 690 88 L 690 89 L 692 91 L 694 91 L 695 92 L 697 92 L 698 93 L 699 93 L 701 95 L 702 95 L 704 97 L 704 98 L 705 99 L 705 102 L 704 103 L 704 104 L 703 105 L 703 106 L 694 115 L 693 115 L 692 116 L 691 116 L 690 117 L 688 117 L 686 119 L 685 119 L 684 120 L 683 120 L 682 121 L 680 121 L 679 122 L 678 122 L 677 123 L 676 123 L 674 125 L 671 125 L 669 127 L 667 127 L 666 128 L 664 128 L 663 129 L 662 129 L 661 130 L 659 130 L 658 131 L 655 131 L 654 132 L 650 132 L 649 131 L 649 130 L 646 127 L 645 127 L 642 124 L 641 124 L 640 123 L 639 123 L 638 122 L 636 122 L 635 121 L 624 121 L 623 122 L 621 122 L 620 123 L 619 123 L 617 125 L 616 125 L 609 132 L 609 133 L 607 135 L 607 137 L 606 138 L 606 140 L 605 141 L 605 142 L 603 144 L 598 144 L 597 145 L 589 145 L 588 146 L 584 146 L 583 147 L 572 147 L 571 148 L 541 148 L 540 147 L 533 147 L 532 146 L 530 146 L 529 145 L 525 145 L 524 144 L 523 144 L 522 143 L 521 143 L 520 142 L 519 142 L 515 138 L 515 133 L 517 131 L 517 130 L 526 121 L 527 121 L 528 120 L 528 117 L 526 117 L 524 119 L 523 119 L 522 120 L 521 120 L 520 121 L 519 121 L 518 122 L 517 122 L 514 125 L 513 125 L 505 133 L 505 134 L 504 135 L 504 136 L 503 137 L 503 139 L 502 140 L 502 144 L 503 145 L 503 146 L 504 147 L 504 148 L 508 152 L 509 152 L 511 154 L 513 154 L 514 155 L 515 155 L 516 156 L 518 156 L 519 157 L 523 157 L 524 158 L 528 158 L 529 159 L 532 159 L 533 160 L 542 160 L 543 161 L 573 161 L 574 160 L 585 160 L 586 159 L 591 159 L 592 158 L 600 158 L 601 157 L 607 157 L 612 162 L 612 163 L 615 166 L 616 166 L 618 168 L 620 168 L 621 169 L 624 169 L 625 170 L 635 170 L 636 169 L 638 169 L 639 168 L 641 168 L 643 166 L 644 166 L 650 160 L 650 159 L 652 157 L 652 155 L 653 154 L 653 152 L 654 151 L 654 148 L 656 146 L 657 146 L 658 145 L 659 145 L 660 144 L 663 144 L 664 143 L 665 143 L 666 142 L 668 142 L 669 141 L 671 141 L 672 140 L 673 140 L 674 139 L 675 139 L 676 138 L 678 138 L 679 137 L 681 137 L 682 136 L 684 136 L 685 135 L 686 135 L 687 134 L 688 134 L 689 133 L 691 133 L 692 132 L 693 132 L 694 131 L 695 131 L 696 130 L 697 130 L 699 128 L 701 128 L 702 127 L 703 127 L 706 124 L 707 124 L 709 122 L 710 122 L 719 113 L 719 112 L 721 110 L 721 109 L 722 108 L 722 101 L 721 100 L 721 99 L 716 94 L 715 94 L 713 92 L 712 92 L 711 91 L 710 91 L 709 90 L 706 90 L 705 89 L 703 89 L 702 88 L 699 88 L 698 87 L 694 87 L 693 86 Z M 645 85 L 644 86 L 635 86 L 634 87 L 630 87 L 629 88 L 622 88 L 621 89 L 617 89 L 616 90 L 611 90 L 610 91 L 606 91 L 605 92 L 601 92 L 600 93 L 596 93 L 595 94 L 592 94 L 591 95 L 587 95 L 586 96 L 583 96 L 582 97 L 578 97 L 577 98 L 576 98 L 575 99 L 571 99 L 570 100 L 567 100 L 566 101 L 564 101 L 563 102 L 561 102 L 560 103 L 559 103 L 558 104 L 558 105 L 559 106 L 560 105 L 561 105 L 562 104 L 563 104 L 564 103 L 567 103 L 568 102 L 570 102 L 571 101 L 574 101 L 575 100 L 576 100 L 577 99 L 579 99 L 580 98 L 584 98 L 585 97 L 588 97 L 589 96 L 593 96 L 594 95 L 596 95 L 597 94 L 600 94 L 601 93 L 607 93 L 608 92 L 614 92 L 615 91 L 619 91 L 620 90 L 624 90 L 625 89 L 634 89 L 635 88 L 648 88 L 649 87 L 660 87 L 661 86 L 661 85 Z M 261 52 L 261 54 L 259 56 L 259 57 L 258 58 L 258 59 L 257 60 L 257 61 L 256 62 L 256 63 L 255 64 L 255 65 L 254 66 L 254 67 L 252 69 L 252 70 L 251 71 L 251 73 L 248 76 L 248 77 L 247 78 L 247 79 L 245 81 L 245 83 L 243 85 L 243 86 L 242 87 L 242 88 L 241 89 L 241 90 L 240 91 L 240 92 L 239 93 L 239 94 L 238 95 L 238 96 L 236 98 L 236 99 L 235 100 L 235 101 L 234 102 L 234 103 L 233 104 L 233 105 L 232 106 L 232 107 L 231 108 L 231 109 L 230 110 L 230 111 L 228 113 L 228 114 L 226 116 L 226 117 L 225 118 L 225 119 L 224 120 L 224 121 L 222 123 L 222 124 L 221 125 L 221 127 L 220 128 L 220 129 L 219 130 L 219 131 L 217 133 L 217 134 L 216 135 L 216 136 L 215 137 L 215 138 L 213 140 L 213 141 L 212 142 L 212 143 L 211 144 L 211 145 L 209 147 L 209 148 L 208 149 L 208 150 L 206 152 L 206 153 L 205 154 L 205 155 L 204 156 L 204 157 L 203 158 L 203 159 L 202 160 L 202 161 L 201 162 L 201 163 L 200 164 L 200 165 L 199 166 L 199 167 L 198 168 L 198 169 L 196 171 L 196 172 L 195 173 L 195 174 L 194 175 L 194 176 L 193 177 L 193 178 L 190 181 L 190 183 L 189 184 L 189 185 L 188 186 L 188 187 L 187 188 L 187 194 L 188 195 L 188 196 L 189 197 L 189 198 L 191 200 L 191 201 L 192 202 L 193 202 L 198 207 L 199 207 L 200 208 L 201 208 L 202 209 L 203 209 L 204 210 L 205 210 L 206 211 L 207 211 L 208 212 L 210 212 L 211 213 L 214 213 L 215 214 L 216 214 L 217 215 L 219 215 L 220 216 L 224 216 L 225 217 L 228 217 L 229 218 L 235 218 L 236 219 L 239 219 L 240 220 L 249 220 L 250 221 L 276 221 L 277 220 L 285 220 L 286 219 L 290 219 L 291 218 L 296 218 L 297 217 L 300 217 L 301 216 L 305 216 L 306 215 L 308 215 L 309 214 L 311 214 L 312 213 L 314 213 L 315 212 L 317 212 L 318 211 L 319 211 L 320 210 L 321 210 L 322 209 L 323 209 L 324 208 L 325 208 L 326 207 L 327 207 L 329 205 L 330 205 L 334 201 L 334 200 L 336 198 L 336 197 L 337 196 L 337 186 L 336 185 L 336 184 L 335 183 L 335 182 L 334 181 L 334 180 L 333 179 L 333 178 L 332 177 L 332 176 L 330 174 L 330 173 L 329 172 L 329 171 L 328 170 L 328 169 L 327 168 L 327 167 L 326 166 L 326 165 L 325 164 L 325 163 L 323 161 L 323 160 L 321 158 L 321 156 L 318 153 L 318 151 L 316 149 L 316 148 L 315 147 L 315 146 L 314 145 L 314 144 L 313 143 L 313 142 L 312 141 L 312 140 L 311 139 L 311 138 L 310 137 L 310 136 L 309 135 L 309 134 L 308 133 L 308 132 L 306 130 L 306 129 L 305 128 L 305 127 L 304 126 L 304 125 L 302 123 L 302 121 L 300 119 L 300 118 L 298 116 L 298 115 L 297 114 L 297 113 L 296 112 L 296 111 L 294 109 L 294 107 L 293 106 L 293 105 L 292 104 L 292 103 L 291 102 L 291 101 L 290 100 L 290 99 L 288 97 L 288 96 L 287 95 L 287 94 L 286 93 L 286 92 L 284 90 L 284 89 L 283 88 L 283 87 L 282 86 L 282 85 L 281 84 L 281 83 L 279 81 L 279 80 L 277 78 L 277 76 L 275 74 L 275 73 L 274 72 L 274 71 L 273 70 L 273 69 L 272 68 L 272 67 L 271 66 L 271 64 L 269 62 L 269 61 L 267 59 L 267 58 L 266 57 L 266 56 L 265 55 L 265 54 L 263 52 Z M 261 175 L 262 174 L 265 174 L 266 175 L 276 175 L 277 176 L 284 176 L 285 177 L 290 177 L 291 178 L 293 178 L 294 179 L 296 179 L 297 180 L 298 180 L 299 181 L 300 181 L 301 182 L 303 182 L 304 183 L 305 183 L 307 185 L 308 185 L 312 189 L 312 192 L 311 193 L 311 194 L 309 196 L 308 196 L 307 197 L 306 197 L 304 199 L 302 199 L 301 200 L 300 200 L 299 201 L 297 201 L 296 202 L 295 202 L 294 203 L 291 203 L 290 204 L 289 204 L 288 205 L 284 205 L 283 206 L 275 206 L 274 207 L 252 207 L 251 206 L 242 206 L 241 205 L 238 205 L 237 204 L 235 204 L 234 203 L 233 203 L 232 202 L 229 202 L 228 201 L 226 201 L 225 200 L 223 200 L 221 198 L 220 198 L 219 197 L 218 197 L 213 192 L 213 190 L 220 183 L 221 183 L 222 182 L 224 182 L 225 181 L 226 181 L 227 180 L 228 180 L 229 179 L 231 179 L 232 178 L 235 178 L 236 177 L 240 177 L 241 176 L 247 176 L 248 175 Z M 1103 51 L 1102 52 L 1102 53 L 1101 54 L 1101 55 L 1100 56 L 1100 57 L 1099 58 L 1099 59 L 1097 61 L 1097 62 L 1096 63 L 1096 64 L 1095 65 L 1095 66 L 1094 67 L 1094 68 L 1093 69 L 1093 70 L 1091 72 L 1091 74 L 1088 77 L 1088 78 L 1087 79 L 1087 80 L 1085 82 L 1085 84 L 1083 86 L 1083 87 L 1082 88 L 1082 89 L 1081 90 L 1081 91 L 1080 92 L 1080 93 L 1079 94 L 1079 95 L 1078 96 L 1078 97 L 1077 98 L 1077 99 L 1076 100 L 1076 101 L 1075 102 L 1075 103 L 1074 104 L 1074 105 L 1072 107 L 1072 108 L 1070 110 L 1070 111 L 1069 112 L 1069 113 L 1068 114 L 1068 115 L 1066 117 L 1066 118 L 1065 119 L 1065 120 L 1064 121 L 1064 122 L 1063 123 L 1063 124 L 1062 125 L 1062 126 L 1061 127 L 1061 129 L 1059 131 L 1059 132 L 1058 133 L 1058 134 L 1057 135 L 1057 136 L 1056 137 L 1056 138 L 1055 139 L 1055 140 L 1052 143 L 1052 145 L 1050 147 L 1050 149 L 1047 152 L 1047 154 L 1045 156 L 1045 157 L 1044 158 L 1044 159 L 1043 160 L 1043 161 L 1042 162 L 1042 163 L 1041 164 L 1041 165 L 1040 166 L 1040 167 L 1039 168 L 1039 169 L 1037 171 L 1037 172 L 1036 173 L 1036 174 L 1035 175 L 1035 176 L 1034 177 L 1034 178 L 1032 180 L 1032 181 L 1031 182 L 1031 183 L 1030 184 L 1030 185 L 1029 186 L 1029 187 L 1027 189 L 1027 190 L 1026 191 L 1026 192 L 1025 193 L 1025 194 L 1024 195 L 1024 196 L 1023 197 L 1023 198 L 1021 200 L 1021 201 L 1020 202 L 1020 204 L 1019 205 L 1019 206 L 1017 208 L 1017 209 L 1016 210 L 1016 211 L 1015 212 L 1015 214 L 1014 215 L 1013 215 L 1013 216 L 1012 217 L 1012 218 L 1011 219 L 1011 221 L 1036 221 L 1038 219 L 1038 218 L 1039 217 L 1039 216 L 1041 214 L 1041 213 L 1042 212 L 1042 211 L 1043 210 L 1043 209 L 1044 208 L 1044 207 L 1046 205 L 1046 204 L 1047 203 L 1047 202 L 1049 200 L 1049 199 L 1050 198 L 1050 197 L 1052 195 L 1052 194 L 1053 193 L 1053 192 L 1054 191 L 1054 190 L 1056 188 L 1056 187 L 1057 186 L 1057 185 L 1058 184 L 1058 183 L 1059 182 L 1059 181 L 1060 180 L 1060 179 L 1061 178 L 1061 177 L 1062 176 L 1062 175 L 1064 173 L 1064 172 L 1065 171 L 1065 170 L 1067 168 L 1067 167 L 1069 165 L 1069 164 L 1070 163 L 1070 162 L 1071 161 L 1071 160 L 1072 159 L 1072 158 L 1074 156 L 1074 154 L 1076 152 L 1076 151 L 1077 150 L 1077 149 L 1078 148 L 1078 147 L 1079 146 L 1079 145 L 1081 143 L 1081 142 L 1082 141 L 1082 140 L 1083 139 L 1083 138 L 1084 137 L 1084 136 L 1086 134 L 1086 133 L 1087 132 L 1087 131 L 1089 129 L 1089 128 L 1091 126 L 1091 124 L 1093 122 L 1093 121 L 1094 120 L 1094 119 L 1095 118 L 1095 117 L 1097 115 L 1097 114 L 1098 113 L 1098 112 L 1099 111 L 1099 109 L 1103 105 L 1104 106 L 1104 107 L 1105 108 L 1105 109 L 1106 110 L 1106 111 L 1107 112 L 1107 113 L 1108 114 L 1108 115 L 1110 117 L 1110 118 L 1111 119 L 1111 120 L 1112 121 L 1112 122 L 1113 123 L 1113 124 L 1114 125 L 1114 126 L 1115 127 L 1115 128 L 1116 129 L 1116 130 L 1117 131 L 1117 132 L 1118 133 L 1118 134 L 1120 136 L 1120 137 L 1121 138 L 1121 139 L 1122 140 L 1122 141 L 1123 142 L 1123 143 L 1124 144 L 1124 145 L 1125 146 L 1125 147 L 1126 148 L 1126 149 L 1128 151 L 1128 152 L 1129 153 L 1129 154 L 1131 156 L 1131 158 L 1132 159 L 1132 160 L 1134 162 L 1134 163 L 1135 164 L 1135 165 L 1136 166 L 1136 167 L 1137 168 L 1137 170 L 1139 172 L 1139 173 L 1140 174 L 1140 175 L 1141 176 L 1141 177 L 1142 178 L 1142 179 L 1143 180 L 1143 181 L 1144 182 L 1144 183 L 1145 184 L 1145 185 L 1146 186 L 1146 187 L 1148 189 L 1148 190 L 1149 191 L 1149 192 L 1151 194 L 1151 195 L 1152 196 L 1152 197 L 1153 198 L 1153 199 L 1154 200 L 1154 201 L 1155 202 L 1155 203 L 1156 204 L 1156 205 L 1157 206 L 1157 207 L 1158 208 L 1158 209 L 1160 211 L 1160 213 L 1161 214 L 1161 215 L 1162 216 L 1162 217 L 1164 219 L 1164 220 L 1165 221 L 1190 221 L 1190 218 L 1189 217 L 1189 216 L 1188 215 L 1188 214 L 1187 213 L 1187 212 L 1186 211 L 1186 210 L 1185 209 L 1185 208 L 1183 206 L 1183 205 L 1182 204 L 1182 203 L 1181 202 L 1181 201 L 1180 200 L 1180 199 L 1179 198 L 1179 197 L 1178 196 L 1178 195 L 1177 194 L 1177 193 L 1175 191 L 1175 190 L 1174 189 L 1174 188 L 1173 187 L 1173 186 L 1172 185 L 1172 183 L 1171 182 L 1171 181 L 1170 180 L 1170 179 L 1169 178 L 1169 177 L 1168 176 L 1168 175 L 1167 174 L 1167 173 L 1166 172 L 1166 171 L 1164 169 L 1164 168 L 1163 167 L 1163 166 L 1162 165 L 1162 164 L 1161 163 L 1161 162 L 1159 160 L 1159 159 L 1158 158 L 1158 157 L 1157 156 L 1157 155 L 1156 154 L 1156 153 L 1155 152 L 1155 151 L 1154 150 L 1154 149 L 1153 148 L 1153 147 L 1152 146 L 1152 144 L 1151 143 L 1151 142 L 1150 141 L 1150 140 L 1148 138 L 1148 137 L 1147 136 L 1147 135 L 1146 134 L 1146 133 L 1145 132 L 1145 131 L 1143 129 L 1143 127 L 1141 125 L 1141 123 L 1140 122 L 1140 121 L 1138 119 L 1138 118 L 1137 117 L 1137 116 L 1136 115 L 1136 114 L 1135 113 L 1135 112 L 1134 111 L 1134 110 L 1133 109 L 1133 108 L 1132 107 L 1132 105 L 1131 104 L 1131 103 L 1129 101 L 1129 99 L 1128 98 L 1128 97 L 1126 95 L 1126 94 L 1124 92 L 1124 91 L 1123 90 L 1123 89 L 1122 88 L 1122 87 L 1121 86 L 1121 85 L 1120 84 L 1120 83 L 1119 82 L 1119 81 L 1118 80 L 1118 79 L 1117 78 L 1117 77 L 1116 76 L 1116 75 L 1115 74 L 1115 73 L 1114 72 L 1114 71 L 1113 70 L 1113 69 L 1112 68 L 1112 66 L 1110 64 L 1110 63 L 1109 62 L 1109 61 L 1108 60 L 1108 59 L 1107 58 L 1107 57 L 1105 55 L 1105 54 L 1104 53 L 1104 52 Z M 890 51 L 889 52 L 889 74 L 949 74 L 950 75 L 950 221 L 973 221 L 974 220 L 974 76 L 976 74 L 1035 74 L 1035 52 L 1034 51 Z M 733 51 L 733 73 L 732 74 L 792 74 L 793 75 L 793 76 L 794 77 L 794 218 L 793 219 L 794 220 L 794 221 L 816 221 L 817 220 L 817 76 L 819 74 L 878 74 L 878 52 L 877 51 Z M 664 51 L 664 118 L 669 118 L 670 117 L 672 117 L 673 116 L 674 116 L 675 115 L 676 115 L 678 113 L 680 113 L 681 112 L 682 112 L 683 111 L 684 111 L 686 109 L 687 109 L 688 108 L 688 53 L 687 52 L 687 51 Z M 532 51 L 531 52 L 531 139 L 532 140 L 537 140 L 538 141 L 554 141 L 555 140 L 555 52 L 554 51 Z M 359 51 L 359 53 L 358 54 L 358 219 L 359 220 L 359 221 L 381 221 L 382 220 L 382 160 L 383 159 L 384 159 L 385 158 L 388 158 L 389 159 L 438 159 L 439 158 L 451 158 L 452 157 L 455 157 L 456 156 L 459 156 L 461 154 L 463 154 L 464 153 L 465 153 L 467 151 L 468 151 L 469 150 L 470 150 L 473 147 L 474 147 L 481 140 L 481 139 L 483 137 L 483 136 L 486 133 L 486 132 L 487 131 L 487 130 L 488 129 L 488 127 L 489 126 L 489 125 L 490 124 L 490 122 L 491 121 L 491 118 L 492 117 L 492 115 L 493 114 L 493 98 L 492 97 L 492 92 L 491 91 L 491 88 L 490 87 L 490 86 L 489 85 L 489 84 L 488 83 L 488 81 L 487 80 L 487 79 L 486 78 L 486 77 L 484 75 L 484 74 L 482 72 L 482 71 L 473 62 L 472 62 L 470 60 L 469 60 L 467 58 L 466 58 L 465 57 L 464 57 L 463 56 L 462 56 L 461 55 L 458 55 L 457 54 L 456 54 L 455 53 L 453 53 L 452 52 L 448 52 L 447 51 Z M 384 74 L 443 74 L 444 75 L 446 75 L 447 76 L 450 76 L 451 77 L 452 77 L 453 78 L 454 78 L 456 80 L 457 80 L 465 88 L 465 89 L 466 90 L 466 91 L 467 92 L 467 94 L 468 95 L 468 96 L 469 97 L 469 100 L 470 101 L 470 109 L 469 110 L 469 113 L 468 114 L 468 116 L 467 117 L 467 118 L 465 120 L 465 121 L 463 123 L 463 124 L 457 130 L 456 130 L 454 132 L 453 132 L 452 133 L 451 133 L 450 134 L 449 134 L 448 135 L 442 135 L 441 136 L 384 136 L 382 134 L 382 76 Z M 51 51 L 51 220 L 52 221 L 166 221 L 166 197 L 76 197 L 75 196 L 75 52 L 74 51 Z "/>
</svg>